<svg width="291" height="165" viewBox="0 0 291 165" fill="none" preserveAspectRatio="xMidYMid meet" xmlns="http://www.w3.org/2000/svg">
<path d="M249.834 105.947V134.228C249.834 134.423 249.869 134.617 249.937 134.801C249.974 134.917 250.022 135.031 250.081 135.138C250.253 135.482 250.515 135.773 250.839 135.98L289.036 157.964C289.143 158.046 289.272 158.094 289.408 158.103C289.543 158.111 289.677 158.078 289.794 158.01C289.86 157.96 289.913 157.895 289.949 157.821C290.013 157.685 290.045 157.536 290.041 157.386V129.104C290.04 128.91 290.009 128.717 289.949 128.532C289.907 128.41 289.858 128.291 289.799 128.177C289.624 127.834 289.36 127.544 289.036 127.335L250.85 105.34C250.741 105.258 250.61 105.211 250.474 105.205C250.338 105.199 250.203 105.234 250.087 105.305C250.023 105.356 249.971 105.418 249.931 105.489C249.862 105.631 249.829 105.788 249.834 105.947Z" fill="#DDB545"/>
<path d="M289.719 158.033L288.248 158.84L288.156 156.241L289.719 158.033Z" fill="#DDB545"/>
<path d="M250.19 105.271L248.605 106.136L250.839 108.803L250.19 105.271Z" fill="#DDB545"/>
<path d="M248.352 106.76V135.041C248.356 135.236 248.39 135.43 248.455 135.614C248.495 135.73 248.543 135.842 248.599 135.951C248.771 136.295 249.033 136.586 249.357 136.793L287.554 158.766C287.662 158.846 287.792 158.892 287.927 158.898C288.063 158.905 288.196 158.87 288.312 158.8C288.377 158.751 288.43 158.689 288.467 158.617C288.535 158.482 288.569 158.332 288.565 158.182V129.9C288.565 129.705 288.532 129.512 288.467 129.328C288.303 128.844 287.981 128.429 287.554 128.148L249.369 106.176C249.26 106.095 249.131 106.048 248.996 106.041C248.861 106.034 248.727 106.067 248.61 106.136C248.544 106.185 248.491 106.25 248.455 106.325C248.385 106.459 248.349 106.608 248.352 106.76V106.76Z" fill="#FFD44D"/>
<path opacity="0.12" d="M288.398 158.903L268.461 132.356L248.559 135.86V138.665L288.564 161.685L288.398 158.903Z" fill="black"/>
<path opacity="0.05" d="M268.461 132.356L288.358 129.081L290.19 128.497L291 160.752L288.312 158.8L268.461 132.356Z" fill="black"/>
<path opacity="0.05" d="M268.461 132.356L248.559 106.176L246.727 103.491L245.917 134.806L248.559 135.86L268.461 132.356Z" fill="black"/>
<path d="M4.58345 35.6267V68.74C4.58828 68.9663 4.62899 69.1905 4.70407 69.4041C4.75223 69.5388 4.80784 69.6706 4.87064 69.7991C5.07223 70.2018 5.37999 70.5422 5.76093 70.7838L50.4882 96.5463C50.6161 96.6397 50.7689 96.6934 50.9273 96.7005C51.0857 96.7076 51.2427 96.6679 51.3785 96.5864C51.4556 96.5288 51.5185 96.4544 51.5623 96.3688C51.6391 96.2102 51.6765 96.0354 51.6714 95.8593V62.7173C51.6686 62.4988 51.6298 62.2822 51.5565 62.0761C51.51 61.9345 51.4523 61.7966 51.3842 61.6639C51.1822 61.2582 50.8722 60.9156 50.4882 60.6735L5.77243 34.9225C5.64575 34.8267 5.49312 34.7712 5.33435 34.763C5.17559 34.7548 5.01802 34.7944 4.88213 34.8767C4.80347 34.9326 4.74025 35.0075 4.69832 35.0942C4.61762 35.2599 4.57823 35.4426 4.58345 35.6267V35.6267Z" fill="#DDB545"/>
<path d="M51.2925 96.615L49.5693 97.5596L49.4602 94.5139L51.2925 96.615Z" fill="#DDB545"/>
<path d="M5.00304 34.8251L3.14204 35.8442L5.76123 38.9643L5.00304 34.8251Z" fill="#DDB545"/>
<path d="M2.84906 36.5769V69.6903C2.85389 69.9166 2.89461 70.1408 2.96969 70.3544C3.01786 70.489 3.07345 70.6209 3.13625 70.7494C3.3411 71.1499 3.64817 71.4895 4.02656 71.7341L48.7538 97.4966C48.8814 97.5907 49.0342 97.6448 49.1928 97.652C49.3514 97.6591 49.5085 97.619 49.6441 97.5367C49.7227 97.4807 49.786 97.4059 49.8279 97.3191C49.9047 97.1604 49.9422 96.9857 49.937 96.8096V63.6676C49.9342 63.4491 49.8954 63.2324 49.8222 63.0264C49.7781 62.8838 49.7204 62.7458 49.6498 62.6142C49.4478 62.2085 49.1378 61.8659 48.7538 61.6238L4.03804 35.8899C3.91015 35.7944 3.75662 35.7391 3.59703 35.7309C3.43744 35.7228 3.27902 35.7622 3.142 35.8441C3.06489 35.9017 3.00202 35.9762 2.95819 36.0617C2.88215 36.2227 2.84478 36.3991 2.84906 36.5769Z" fill="#FFD44D"/>
<path opacity="0.12" d="M49.7532 97.6283L26.393 66.5416L3.09028 70.6464V73.9325L49.937 100.892L49.7532 97.6283Z" fill="black"/>
<path opacity="0.05" d="M26.3928 66.5416L49.6956 62.7115L51.838 62.0245L52.7915 99.798L49.6439 97.5138L26.3928 66.5416Z" fill="black"/>
<path opacity="0.05" d="M26.3931 66.5416L3.09032 35.89L0.947859 32.7412L0.00012948 69.4155L3.09032 70.6464L26.3931 66.5416Z" fill="black"/>
<path d="M102.292 25.6365C102.358 25.4733 102.47 25.3323 102.614 25.23C102.902 25.0804 103.212 24.9779 103.533 24.9266L152.039 11.032L200.546 80.7567C200.885 81.1325 201.175 81.55 201.408 81.999C201.556 82.2804 201.681 82.5733 201.781 82.875C201.93 83.3161 202.01 83.7777 202.017 84.2432V154.575C202.025 154.95 201.946 155.322 201.787 155.663C201.693 155.843 201.56 156 201.396 156.121C201.11 156.296 200.777 156.382 200.441 156.367C200.105 156.351 199.781 156.236 199.512 156.035L104.561 101.395C103.508 100.692 102.719 99.6614 102.315 98.4641C102.153 98.01 102.067 97.5321 102.062 97.0501V26.7185C102.053 26.345 102.132 25.9745 102.292 25.6365V25.6365Z" fill="#DDB545"/>
<path d="M102.746 25.1499L99.7649 26.9132L103.929 29.9589L102.746 25.1499Z" fill="#CEB95F"/>
<path d="M198.346 157.924L201.396 156.092L196.692 152.714L198.346 157.924Z" fill="#DDB545"/>
<path d="M152.04 11.032L149.127 12.7782L99.7649 26.9074L102.217 25.459C103.165 25.0476 104.145 24.7144 105.147 24.4629L152.04 11.032Z" fill="#C19B3D"/>
<path d="M99.1559 28.4647V98.7676C99.1636 99.2475 99.249 99.7231 99.4086 100.176C99.5076 100.463 99.6286 100.743 99.7705 101.012C100.197 101.867 100.848 102.591 101.654 103.107L196.594 157.746C196.863 157.95 197.188 158.067 197.525 158.083C197.862 158.1 198.196 158.014 198.484 157.838C198.646 157.715 198.778 157.556 198.869 157.374C199.031 157.037 199.109 156.666 199.099 156.292V85.9837C199.092 85.5182 199.012 85.0566 198.863 84.6154C198.762 84.3142 198.637 84.0213 198.49 83.7395C198.06 82.8792 197.403 82.1526 196.589 81.6384L101.672 27.0105L103.291 28.1212C102.533 27.6918 100.224 26.5697 99.7647 26.9132C99.6027 27.0366 99.4711 27.1952 99.3799 27.3769C99.2192 27.7165 99.1424 28.0895 99.1559 28.4647V28.4647Z" fill="#FFD44D"/>
<path opacity="0.12" d="M198.484 157.838L149.127 92.0865L99.65 100.8V107.773L199.104 165L198.484 157.838Z" fill="black"/>
<path opacity="0.05" d="M149.127 92.0866L198.599 83.9513L203.142 82.4972L205.164 162.681L198.484 157.838L149.127 92.0866Z" fill="black"/>
<path opacity="0.05" d="M149.23 91.9949L99.7588 26.9247L95.2154 20.2436L93.1936 98.0978L99.7588 100.708L149.23 91.9949Z" fill="black"/>
<path d="M198.496 83.7395L149.127 12.7782L99.7648 26.9132L149.127 92.0865L198.496 83.7395Z" fill="#FFD44D"/>
<path opacity="0.3" d="M99.7648 26.9132L110.937 41.6665L149.127 92.0865L187.312 85.6287L198.496 83.7395L187.312 67.6637L159.799 28.1155L149.127 12.7782L138.455 15.8353L110.937 23.7187L99.7648 26.9132Z" fill="black"/>
<path d="M110.937 0V41.6665L149.127 92.0865L187.312 85.6287V43.9508L110.937 0Z" fill="#FAFBFF"/>
<path d="M161.913 62.2593L180.759 73.1025V51.4162L161.913 40.5673V62.2593Z" fill="#E9EAF2"/>
<path d="M139.701 49.4754L158.547 60.3242V38.6322L139.701 27.7834V49.4754Z" fill="#E9EAF2"/>
<path d="M117.49 36.6972L136.341 47.546V25.854L117.49 15.0052V36.6972Z" fill="#E9EAF2"/>
<path d="M117.49 45.7026L180.759 82.1079V78.3351L117.49 41.9241V45.7026Z" fill="#E9EAF2"/>
<path d="M126.916 55.4809V59.2594L175.796 87.3863L180.764 86.8825V86.4703L126.916 55.4809Z" fill="#E9EAF2"/>
<path d="M136.341 68.4595V72.238L165.158 88.8175L171.109 88.4683L136.341 68.4595Z" fill="#E9EAF2"/>
<path d="M141.298 79.4457V81.7529L143.274 84.3578L155.009 91.1133L160.115 90.2774L141.298 79.4457Z" fill="#E9EAF2"/>
</svg>
