<svg width="507" height="500" viewBox="0 0 507 500" fill="none" xmlns="http://www.w3.org/2000/svg">
    <g clip-path="url(#clip0_72_4306)">
        <path opacity="0.4"
            d="M348.54 496.44L450.48 437.59C459.11 432.59 458.03 423.9 448.06 418.14L201.82 276C191.82 270.24 176.77 269.62 168.14 274.6L66.2 333.45C57.57 338.45 58.65 347.15 68.62 352.9L314.86 495.05C324.83 500.8 339.91 501.43 348.54 496.44Z"
            fill="#D6D8E5" />
        <path
            d="M335.63 488.7L437.56 429.85C446.2 424.85 445.11 416.15 435.14 410.4L188.91 268.23C178.91 262.48 163.91 261.85 155.22 266.84L53.2899 325.69C44.6599 330.69 45.7399 339.38 55.7099 345.14L301.94 487.3C311.91 493.06 326.99 493.68 335.63 488.7Z"
            fill="#B1B4C4" />
        <path d="M443.39 421.27V411.89L432.38 416.04L443.39 421.27Z" fill="#B1B4C4" />
        <path d="M47.46 333.81V324.79L56.21 330.43L47.46 333.81Z" fill="#B1B4C4" />
        <path
            d="M335.63 480.75L437.56 421.9C446.2 416.9 445.11 408.21 435.14 402.45L188.91 260.29C178.91 254.53 163.91 253.91 155.22 258.89L53.2899 317.74C44.6599 322.74 45.7399 331.44 55.7099 337.19L301.94 479.36C311.91 485.11 326.99 485.74 335.63 480.75Z"
            fill="#616E84" />
        <path
            d="M425.261 433.962C424.739 433.661 424.74 432.684 425.262 431.78C425.784 430.876 426.629 430.387 427.151 430.688C427.672 430.989 427.672 431.966 427.15 432.87C426.628 433.774 425.782 434.263 425.261 433.962Z"
            fill="#757B89" />
        <path
            d="M420.354 436.798C419.832 436.497 419.833 435.52 420.355 434.616C420.876 433.712 421.722 433.223 422.244 433.524C422.765 433.825 422.764 434.802 422.243 435.706C421.721 436.61 420.875 437.099 420.354 436.798Z"
            fill="#757B89" />
        <path
            d="M415.446 439.624C414.925 439.323 414.925 438.346 415.447 437.442C415.969 436.538 416.815 436.049 417.336 436.35C417.858 436.651 417.857 437.628 417.335 438.532C416.813 439.436 415.968 439.925 415.446 439.624Z"
            fill="#757B89" />
        <path
            d="M410.543 442.463C410.022 442.162 410.022 441.185 410.544 440.281C411.066 439.377 411.912 438.888 412.433 439.189C412.954 439.49 412.954 440.467 412.432 441.371C411.91 442.275 411.064 442.764 410.543 442.463Z"
            fill="#757B89" />
        <path
            d="M368.407 466.78C367.886 466.479 367.886 465.502 368.408 464.598C368.93 463.694 369.776 463.205 370.297 463.506C370.819 463.807 370.818 464.784 370.296 465.688C369.774 466.592 368.929 467.081 368.407 466.78Z"
            fill="#757B89" />
        <path
            d="M363.509 469.621C362.987 469.32 362.988 468.343 363.51 467.439C364.032 466.535 364.877 466.046 365.399 466.347C365.92 466.648 365.92 467.625 365.398 468.529C364.876 469.433 364.03 469.922 363.509 469.621Z"
            fill="#757B89" />
        <path
            d="M358.602 472.446C358.08 472.145 358.081 471.169 358.603 470.265C359.125 469.361 359.97 468.872 360.492 469.173C361.013 469.474 361.012 470.451 360.491 471.355C359.969 472.259 359.123 472.747 358.602 472.446Z"
            fill="#757B89" />
        <path
            d="M353.689 475.281C353.168 474.98 353.169 474.003 353.691 473.099C354.212 472.195 355.058 471.706 355.579 472.007C356.101 472.308 356.1 473.285 355.578 474.189C355.057 475.093 354.211 475.582 353.689 475.281Z"
            fill="#757B89" />
        <path
            d="M383.63 458.93L397.1 451.14C397.573 450.805 397.96 450.364 398.23 449.851C398.499 449.338 398.643 448.769 398.65 448.19V448.19C398.65 447.05 397.96 446.53 397.1 447.02L383.63 454.81C383.158 455.145 382.771 455.586 382.501 456.099C382.232 456.612 382.088 457.181 382.08 457.76V457.76C382.13 458.9 382.82 459.42 383.63 458.93Z"
            fill="#757B89" />
        <path
            d="M78.31 356.16L90.85 363.4C91.64 363.85 92.29 363.4 92.29 362.31C92.2808 361.771 92.1458 361.242 91.8958 360.764C91.6457 360.287 91.2877 359.874 90.85 359.56L78.31 352.33C77.52 351.87 76.88 352.33 76.88 353.41C76.8874 353.948 77.0205 354.477 77.2688 354.954C77.5171 355.432 77.8737 355.845 78.31 356.16V356.16Z"
            fill="#757B89" />
        <path
            d="M97.5098 367.24L110.05 374.48C110.84 374.94 111.49 374.48 111.49 373.39C111.479 372.853 111.343 372.326 111.093 371.85C110.843 371.374 110.486 370.964 110.05 370.65L97.5098 363.41C96.7198 362.95 96.0798 363.41 96.0798 364.5C96.0863 365.037 96.2192 365.565 96.4676 366.041C96.716 366.517 97.073 366.928 97.5098 367.24V367.24Z"
            fill="#757B89" />
        <path
            d="M335.63 479.31L437.56 420.46C446.2 415.46 445.11 406.77 435.14 401.01L188.91 258.85C178.91 253.09 163.91 252.46 155.22 257.45L53.2899 316.3C44.6599 321.3 45.7399 329.99 55.7099 335.75L301.94 477.91C311.91 483.67 326.99 484.29 335.63 479.31Z"
            fill="#20232D" />
        <path
            d="M64.2298 318.65L104.03 295.65L104.12 295.71C108.83 298.42 116.45 298.42 121.12 295.71C125.79 293 125.82 288.59 121.12 285.88L121.02 285.82L160.82 262.82C166.82 259.33 176.66 259.33 182.71 262.82L422.55 401.32C428.55 404.81 428.55 410.47 422.55 413.96L325.94 469.74C319.89 473.23 310.09 473.23 304.05 469.74L64.2298 331.28C58.1898 327.79 58.1898 322.14 64.2298 318.65Z"
            fill="white" />
        <path opacity="0.5"
            d="M64.2297 331.28L304.05 469.74C309.51 472.89 318.05 473.2 324.11 470.64C324.735 470.378 325.342 470.078 325.93 469.74L422.55 414C423.89 413.266 425.048 412.241 425.94 411C428.22 407.77 427.09 403.93 422.55 401.31L182.74 262.86C176.69 259.38 166.9 259.38 160.85 262.86L121.05 285.86H121.15C125.85 288.57 125.85 292.97 121.15 295.69C116.45 298.41 108.82 298.4 104.15 295.69L104.05 295.63L64.2497 318.63C58.1897 322.14 58.1897 327.79 64.2297 331.28Z"
            fill="url(#paint0_linear_72_4306)" />
        <path
            d="M115.25 294.96C112.726 294.96 110.68 293.778 110.68 292.32C110.68 290.862 112.726 289.68 115.25 289.68C117.774 289.68 119.82 290.862 119.82 292.32C119.82 293.778 117.774 294.96 115.25 294.96Z"
            fill="#2B303F" />
        <path opacity="0.1"
            d="M116.63 293.1C116.79 293.042 116.928 292.936 117.026 292.796C117.124 292.657 117.176 292.49 117.176 292.32C117.176 292.15 117.124 291.983 117.026 291.844C116.928 291.704 116.79 291.598 116.63 291.54C116.21 291.327 115.746 291.217 115.275 291.217C114.804 291.217 114.34 291.327 113.92 291.54C113.755 291.593 113.612 291.698 113.51 291.838C113.408 291.978 113.353 292.147 113.353 292.32C113.353 292.493 113.408 292.662 113.51 292.802C113.612 292.942 113.755 293.047 113.92 293.1C114.34 293.313 114.804 293.423 115.275 293.423C115.746 293.423 116.21 293.313 116.63 293.1V293.1Z"
            fill="white" />
        <path d="M98.8701 311.35L100.6 310.35L97.7101 308.68L95.9801 309.68L98.8701 311.35Z" fill="#E9EAF2" />
        <path d="M96.56 312.68L98.29 311.68L94.25 309.35L92.5201 310.35L96.56 312.68Z" fill="#E9EAF2" />
        <path d="M94.25 314.01L95.98 313.01L90.21 309.68L88.48 310.68L94.25 314.01Z" fill="#E9EAF2" />
        <path d="M91.9399 315.35L93.6699 314.35L85.5899 309.68L83.8599 310.68L91.9399 315.35Z" fill="#E9EAF2" />
        <path d="M84.4399 319.68L87.1299 318.12L81.7399 315.01L79.0499 316.57L84.4399 319.68Z" fill="#E9EAF2" />
        <path d="M80.84 321.75L83.54 320.2L78.15 317.09L75.46 318.64L80.84 321.75Z" fill="#E9EAF2" />
        <path d="M77.2497 323.82L79.9497 322.27L74.5597 319.16L71.8697 320.71L77.2497 323.82Z" fill="#E9EAF2" />
        <path
            d="M189.98 293.28L202.37 286.12C204.09 285.12 203.87 283.41 201.89 282.27L190.46 275.67C189.447 275.102 188.314 274.78 187.153 274.731C185.993 274.683 184.837 274.908 183.78 275.39L171.39 282.54C169.68 283.54 169.89 285.26 171.87 286.4L183.3 293C184.314 293.565 185.447 293.885 186.607 293.934C187.767 293.982 188.922 293.758 189.98 293.28V293.28Z"
            fill="#E9EAF2" />
        <path
            d="M105.7 341.94L178.21 300.08C179.92 299.08 179.7 297.36 177.73 296.22L166.29 289.62C165.278 289.054 164.147 288.734 162.988 288.685C161.83 288.637 160.676 288.861 159.62 289.34L87.1099 331.2C85.3999 332.2 85.6098 333.92 87.5898 335.06L99.0199 341.66C100.035 342.223 101.167 342.542 102.327 342.59C103.486 342.639 104.641 342.416 105.7 341.94V341.94Z"
            fill="#E9EAF2" />
        <path
            d="M215.08 307.77L227.47 300.61C229.18 299.61 228.97 297.9 226.99 296.76L215.56 290.16C214.547 289.592 213.414 289.27 212.253 289.221C211.093 289.173 209.937 289.398 208.88 289.88L196.49 297C194.78 298 194.99 299.72 196.97 300.86L208.4 307.46C209.411 308.03 210.543 308.355 211.703 308.409C212.863 308.463 214.019 308.244 215.08 307.77V307.77Z"
            fill="#E9EAF2" />
        <path
            d="M130.8 356.43L203.3 314.57C205.01 313.57 204.8 311.85 202.82 310.71L191.39 304.11C190.376 303.545 189.243 303.225 188.083 303.176C186.923 303.128 185.768 303.351 184.71 303.83L112.21 345.69C110.5 346.69 110.71 348.41 112.69 349.55L124.12 356.15C125.135 356.713 126.267 357.032 127.427 357.08C128.586 357.129 129.741 356.906 130.8 356.43V356.43Z"
            fill="#E9EAF2" />
        <g opacity="0.6">
            <path opacity="0.6"
                d="M240.17 322.26L252.57 315.1C254.28 314.1 254.07 312.39 252.09 311.25L240.65 304.65C239.638 304.082 238.507 303.76 237.348 303.712C236.189 303.663 235.035 303.889 233.98 304.37L221.58 311.52C219.87 312.52 220.09 314.24 222.06 315.38L233.5 322C234.513 322.563 235.645 322.88 236.804 322.925C237.962 322.97 239.115 322.742 240.17 322.26V322.26Z"
                fill="#E9EAF2" />
            <path opacity="0.6"
                d="M155.89 370.92L228.4 329.06C230.11 328.06 229.9 326.34 227.92 325.2L216.49 318.6C215.476 318.035 214.343 317.715 213.183 317.666C212.023 317.618 210.868 317.841 209.81 318.32L137.3 360.18C135.59 361.18 135.81 362.9 137.78 364.04L149.22 370.64C150.233 371.203 151.364 371.521 152.522 371.57C153.68 371.619 154.833 371.396 155.89 370.92V370.92Z"
                fill="#E9EAF2" />
        </g>
        <path
            d="M265.27 336.75L277.63 329.59C279.34 328.59 279.12 326.88 277.15 325.74L265.71 319.13C264.697 318.566 263.566 318.247 262.407 318.2C261.248 318.153 260.095 318.379 259.04 318.86L246.63 326C244.92 327 245.13 328.72 247.11 329.86L258.63 336.47C259.638 337.031 260.764 337.349 261.917 337.397C263.069 337.446 264.218 337.224 265.27 336.75V336.75Z"
            fill="#E9EAF2" />
        <path
            d="M180.99 385.41L253.5 343.55C255.21 342.55 254.99 340.83 253.02 339.69L241.58 333.09C240.568 332.524 239.437 332.204 238.278 332.155C237.12 332.107 235.966 332.331 234.91 332.81L162.4 374.67C160.69 375.67 160.91 377.39 162.88 378.53L174.32 385.13C175.333 385.693 176.464 386.012 177.622 386.06C178.78 386.109 179.933 385.886 180.99 385.41V385.41Z"
            fill="#E9EAF2" />
        <path
            d="M290.37 351.24L302.76 344.08C304.47 343.08 304.26 341.37 302.28 340.23L290.85 333.62C289.836 333.056 288.703 332.737 287.542 332.69C286.382 332.643 285.227 332.869 284.17 333.35L271.78 340.5C270.07 341.5 270.28 343.22 272.26 344.36L283.69 351C284.707 351.559 285.842 351.872 287.002 351.914C288.162 351.955 289.315 351.725 290.37 351.24V351.24Z"
            fill="#E9EAF2" />
        <path
            d="M206.09 399.9L278.63 358C280.34 357 280.12 355.28 278.15 354.14L266.71 347.54C265.696 346.974 264.563 346.654 263.403 346.605C262.243 346.556 261.087 346.781 260.03 347.26L187.53 389.12C185.82 390.12 186.03 391.84 188.01 392.98L199.44 399.58C200.448 400.145 201.573 400.467 202.727 400.523C203.881 400.578 205.032 400.365 206.09 399.9V399.9Z"
            fill="#E9EAF2" />
        <g opacity="0.6">
            <path opacity="0.6"
                d="M315.47 365.73L327.86 358.57C329.57 357.57 329.36 355.86 327.38 354.72L315.95 348.11C314.935 347.546 313.802 347.227 312.642 347.18C311.482 347.133 310.327 347.359 309.27 347.84L296.88 355C295.16 356 295.38 357.72 297.36 358.86L308.79 365.46C309.805 366.024 310.938 366.342 312.098 366.389C313.258 366.436 314.413 366.21 315.47 365.73Z"
                fill="#E9EAF2" />
            <path opacity="0.6"
                d="M231.19 414.39L303.69 372.53C305.4 371.53 305.19 369.81 303.21 368.67L291.78 362.07C290.766 361.505 289.633 361.185 288.473 361.136C287.313 361.088 286.158 361.311 285.1 361.79L212.63 403.65C210.92 404.65 211.13 406.37 213.11 407.51L224.54 414.11C225.551 414.668 226.678 414.984 227.832 415.033C228.986 415.081 230.135 414.861 231.19 414.39V414.39Z"
                fill="#E9EAF2" />
        </g>
        <path
            d="M340.56 380.22L352.96 373.06C354.67 372.06 354.45 370.35 352.48 369.21L341.04 362.6C340.027 362.036 338.896 361.717 337.737 361.67C336.578 361.623 335.425 361.849 334.37 362.33L321.97 369.48C320.26 370.48 320.48 372.2 322.45 373.34L333.89 379.94C334.902 380.506 336.033 380.826 337.191 380.875C338.35 380.923 339.504 380.699 340.56 380.22V380.22Z"
            fill="#E9EAF2" />
        <path
            d="M256.279 428.88L328.789 387C330.499 386 330.289 384.28 328.309 383.14L316.879 376.54C315.865 375.975 314.733 375.655 313.573 375.606C312.413 375.558 311.257 375.781 310.199 376.26L237.689 418.12C235.979 419.12 236.199 420.84 238.169 421.98L249.629 428.6C250.64 429.16 251.767 429.476 252.921 429.525C254.076 429.574 255.225 429.353 256.279 428.88V428.88Z"
            fill="#E9EAF2" />
        <g opacity="0.6">
            <path opacity="0.6"
                d="M365.63 394.71L378.03 387.55C379.74 386.55 379.52 384.84 377.55 383.7L366.11 377.09C365.095 376.526 363.962 376.207 362.802 376.16C361.642 376.113 360.487 376.339 359.43 376.82L347.07 384C345.36 385 345.57 386.72 347.55 387.86L358.99 394.46C360.001 395.016 361.128 395.329 362.281 395.372C363.433 395.416 364.58 395.189 365.63 394.71Z"
                fill="#E9EAF2" />
            <path opacity="0.6"
                d="M281.381 443.37L353.891 401.51C355.601 400.51 355.381 398.79 353.411 397.65L341.971 391.05C340.958 390.484 339.827 390.164 338.669 390.115C337.51 390.067 336.356 390.291 335.301 390.77L262.791 432.63C261.081 433.63 261.291 435.35 263.271 436.49L274.711 443.09C275.724 443.653 276.854 443.972 278.012 444.02C279.17 444.069 280.324 443.846 281.381 443.37V443.37Z"
                fill="#E9EAF2" />
        </g>
        <g opacity="0.6">
            <path opacity="0.6"
                d="M390.76 409.2L403.15 402C404.86 401 404.65 399.29 402.67 398.15L391.24 391.54C390.225 390.975 389.092 390.657 387.932 390.61C386.772 390.563 385.617 390.789 384.56 391.27L372.17 398.42C370.46 399.42 370.67 401.14 372.65 402.28L384.08 408.88C385.091 409.452 386.222 409.778 387.382 409.834C388.542 409.89 389.699 409.672 390.76 409.2V409.2Z"
                fill="#E9EAF2" />
            <path opacity="0.6"
                d="M306.48 457.86L378.98 416C380.7 415 380.48 413.29 378.51 412.15L367.07 405.55C366.056 404.984 364.923 404.664 363.763 404.615C362.603 404.566 361.447 404.791 360.39 405.27L287.89 447.13C286.18 448.13 286.39 449.85 288.37 450.99L299.8 457.59C300.816 458.151 301.948 458.468 303.108 458.515C304.267 458.562 305.422 458.338 306.48 457.86V457.86Z"
                fill="#E9EAF2" />
        </g>
        <path
            d="M434.959 185.06V234.46C434.961 234.801 435.021 235.14 435.139 235.46C435.204 235.664 435.288 235.862 435.389 236.05C435.688 236.65 436.145 237.158 436.709 237.52L503.209 275.92C503.396 276.064 503.622 276.148 503.857 276.162C504.092 276.176 504.327 276.12 504.529 276C504.645 275.913 504.737 275.8 504.799 275.67C504.911 275.433 504.966 275.172 504.959 274.91V225.51C504.958 225.17 504.904 224.833 504.799 224.51C504.727 224.297 504.641 224.09 504.539 223.89C504.234 223.291 503.775 222.784 503.209 222.42L436.729 184C436.54 183.857 436.311 183.775 436.074 183.764C435.836 183.754 435.601 183.815 435.399 183.94C435.289 184.028 435.197 184.136 435.129 184.26C435.009 184.509 434.951 184.783 434.959 185.06Z"
            fill="#DDB545" />
        <path d="M504.399 276.04L501.839 277.45L501.679 272.91L504.399 276.04Z" fill="#DDB545" />
        <path d="M435.58 183.88L432.82 185.39L436.71 190.05L435.58 183.88Z" fill="#DDB545" />
        <path
            d="M432.38 186.48V235.88C432.386 236.221 432.447 236.558 432.56 236.88C432.629 237.082 432.712 237.28 432.81 237.47C433.109 238.07 433.565 238.578 434.13 238.94L500.63 277.32C500.819 277.461 501.046 277.541 501.281 277.552C501.516 277.563 501.749 277.503 501.95 277.38C502.063 277.295 502.155 277.186 502.22 277.06C502.339 276.825 502.398 276.563 502.39 276.3V226.9C502.39 226.559 502.333 226.221 502.22 225.9C501.934 225.055 501.375 224.33 500.63 223.84L434.15 185.46C433.961 185.319 433.736 185.237 433.501 185.225C433.266 185.212 433.032 185.27 432.83 185.39C432.715 185.476 432.622 185.59 432.56 185.72C432.437 185.954 432.375 186.216 432.38 186.48V186.48Z"
            fill="#FFD44D" />
        <path opacity="0.12" d="M502.1 277.56L467.39 231.19L432.74 237.31V242.21L502.39 282.42L502.1 277.56Z"
            fill="black" />
        <path opacity="0.05" d="M467.39 231.19L502.03 225.47L505.22 224.45L506.63 280.79L501.95 277.38L467.39 231.19Z"
            fill="black" />
        <path opacity="0.05" d="M467.39 231.19L432.74 185.46L429.55 180.77L428.14 235.47L432.74 237.31L467.39 231.19Z"
            fill="black" />
        <path
            d="M7.97967 62.2301V120.07C7.98807 120.465 8.05894 120.857 8.18966 121.23C8.27351 121.465 8.37033 121.696 8.47967 121.92C8.83063 122.624 9.36644 123.218 10.0297 123.64L87.8996 168.64C88.1223 168.803 88.3883 168.897 88.6641 168.909C88.9399 168.922 89.2132 168.853 89.4497 168.71C89.5839 168.61 89.6934 168.48 89.7697 168.33C89.9034 168.053 89.9686 167.748 89.9596 167.44V109.55C89.9547 109.168 89.8871 108.79 89.7597 108.43C89.6786 108.183 89.5782 107.942 89.4596 107.71C89.1079 107.001 88.5682 106.403 87.8996 105.98L10.0497 61.0001C9.82913 60.8329 9.56339 60.7358 9.28698 60.7216C9.01057 60.7073 8.73624 60.7765 8.49966 60.9201C8.36272 61.0178 8.25265 61.1485 8.17965 61.3001C8.03916 61.5895 7.97057 61.9085 7.97967 62.2301V62.2301Z"
            fill="#DDB545" />
        <path d="M89.2998 168.76L86.2998 170.41L86.1098 165.09L89.2998 168.76Z" fill="#DDB545" />
        <path d="M8.70978 60.8301L5.46979 62.6101L10.0298 68.0601L8.70978 60.8301Z" fill="#DDB545" />
        <path
            d="M4.95962 63.89V121.73C4.96802 122.125 5.03892 122.517 5.16964 122.89C5.25349 123.125 5.35028 123.356 5.45962 123.58C5.81625 124.28 6.35087 124.873 7.00964 125.3L84.8796 170.3C85.1018 170.464 85.3679 170.559 85.6439 170.571C85.92 170.584 86.1936 170.514 86.4296 170.37C86.5665 170.272 86.6766 170.142 86.7496 169.99C86.8834 169.713 86.9485 169.408 86.9396 169.1V111.21C86.9347 110.828 86.8671 110.45 86.7396 110.09C86.6629 109.841 86.5624 109.6 86.4396 109.37C86.0878 108.661 85.5482 108.063 84.8796 107.64L7.02962 62.69C6.80698 62.5232 6.53969 62.4265 6.26183 62.4122C5.98398 62.398 5.70817 62.4668 5.46963 62.61C5.33538 62.7106 5.22591 62.8406 5.14962 62.99C5.01722 63.2712 4.95217 63.5793 4.95962 63.89Z"
            fill="#FFD44D" />
        <path opacity="0.12" d="M86.6194 170.53L45.9495 116.23L5.37946 123.4V129.14L86.9395 176.23L86.6194 170.53Z"
            fill="black" />
        <path opacity="0.05"
            d="M45.9497 116.23L86.5197 109.54L90.2497 108.34L91.9097 174.32L86.4297 170.33L45.9497 116.23Z"
            fill="black" />
        <path opacity="0.05"
            d="M45.9497 116.23L5.3797 62.6899L1.64969 57.1899L-0.000305176 121.25L5.3797 123.4L45.9497 116.23Z"
            fill="black" />
        <path
            d="M178.09 44.78C178.205 44.495 178.4 44.2487 178.65 44.07C179.151 43.8087 179.692 43.6297 180.25 43.54L264.7 19.27L349.15 141.06C349.741 141.716 350.245 142.446 350.65 143.23C350.908 143.721 351.125 144.233 351.3 144.76C351.56 145.531 351.698 146.337 351.71 147.15V270C351.724 270.656 351.587 271.306 351.31 271.9C351.147 272.215 350.915 272.489 350.63 272.7C350.131 273.007 349.552 273.156 348.967 273.13C348.382 273.103 347.819 272.901 347.35 272.55L182.04 177.11C180.208 175.881 178.833 174.081 178.13 171.99C177.847 171.197 177.698 170.362 177.69 169.52V46.67C177.675 46.0175 177.812 45.3704 178.09 44.78V44.78Z"
            fill="#DDB545" />
        <path d="M178.88 43.9299L173.69 47.0099L180.94 52.3299L178.88 43.9299Z" fill="#CEB95F" />
        <path d="M345.32 275.85L350.63 272.65L342.44 266.75L345.32 275.85Z" fill="#DDB545" />
        <path
            d="M264.7 19.27L259.63 22.32L173.69 47L177.96 44.47C179.609 43.7514 181.315 43.1694 183.06 42.73L264.7 19.27Z"
            fill="#C19B3D" />
        <path
            d="M172.63 49.72V172.52C172.644 173.358 172.792 174.189 173.07 174.98C173.242 175.482 173.453 175.97 173.7 176.44C174.442 177.934 175.576 179.199 176.98 180.1L342.27 275.54C342.739 275.895 343.303 276.1 343.89 276.128C344.477 276.157 345.059 276.007 345.56 275.7C345.842 275.485 346.071 275.207 346.23 274.89C346.512 274.301 346.649 273.653 346.63 273V150.19C346.618 149.377 346.48 148.571 346.22 147.8C346.044 147.274 345.826 146.762 345.57 146.27C344.823 144.767 343.678 143.498 342.26 142.6L177.01 47.18L179.83 49.12C178.51 48.37 174.49 46.41 173.69 47.01C173.408 47.2254 173.179 47.5024 173.02 47.82C172.74 48.4131 172.607 49.0646 172.63 49.72V49.72Z"
            fill="#FFD44D" />
        <path opacity="0.12" d="M345.56 275.7L259.63 160.85L173.49 176.07V188.25L346.64 288.21L345.56 275.7Z"
            fill="black" />
        <path opacity="0.05"
            d="M259.629 160.85L345.759 146.64L353.669 144.1L357.189 284.16L345.559 275.7L259.629 160.85Z"
            fill="black" />
        <path opacity="0.05" d="M259.81 160.69L173.68 47.0301L165.77 35.3601L162.25 171.35L173.68 175.91L259.81 160.69Z"
            fill="black" />
        <path d="M345.58 146.27L259.63 22.3201L173.69 47.0101L259.63 160.85L345.58 146.27Z" fill="#FFD44D" />
        <path opacity="0.3"
            d="M173.69 47.0101L193.14 72.7801L259.63 160.85L326.11 149.57L345.58 146.27L326.11 118.19L278.21 49.1101L259.63 22.3201L241.05 27.6601L193.14 41.4301L173.69 47.0101Z"
            fill="black" />
        <path d="M193.14 0V72.78L259.63 160.85L326.11 149.57V76.77L193.14 0Z" fill="#FAFBFF" />
        <path d="M281.89 108.75L314.7 127.69V89.8101L281.89 70.8601V108.75Z" fill="#E9EAF2" />
        <path d="M243.22 86.42L276.03 105.37V67.48L243.22 48.53V86.42Z" fill="#E9EAF2" />
        <path d="M204.55 64.1L237.37 83.05V45.16L204.55 26.21V64.1Z" fill="#E9EAF2" />
        <path d="M204.55 79.83L314.7 143.42V136.83L204.55 73.23V79.83Z" fill="#E9EAF2" />
        <path d="M220.96 96.9099V103.51L306.06 152.64L314.71 151.76V151.04L220.96 96.9099Z" fill="#E9EAF2" />
        <path d="M237.369 119.58V126.18L287.539 155.14L297.899 154.53L237.369 119.58Z" fill="#E9EAF2" />
        <path d="M246 138.77V142.8L249.44 147.35L269.87 159.15L278.76 157.69L246 138.77Z" fill="#E9EAF2" />
    </g>
    <defs>
        <linearGradient id="paint0_linear_72_4306" x1="243.39" y1="472.36" x2="243.39" y2="260.25"
            gradientUnits="userSpaceOnUse">
            <stop offset="0.21" stop-color="white" stop-opacity="0" />
            <stop offset="1" stop-color="white" stop-opacity="0.2" />
        </linearGradient>
        <clipPath id="clip0_72_4306">
            <rect width="506.63" height="499.81" fill="white" transform="matrix(-1 0 0 1 506.63 0)" />
        </clipPath>
    </defs>
</svg>