<svg width="319" height="422" viewBox="0 0 319 422" fill="none" xmlns="http://www.w3.org/2000/svg">
    <g filter="url(#filter0_bd_369_235)">
        <path opacity="0.4"
            d="M133.72 380.998L76.8 348.138C72.69 345.768 73.21 341.628 77.95 338.888L114.83 317.598L186.62 359.078L149.75 380.368C145 383.108 137.83 383.398 133.72 380.998Z"
            fill="#D6D8E5" />
        <path
            d="M137.88 378.588L80.95 345.718C76.85 343.348 77.37 339.218 82.1 336.478L118.98 315.188L190.77 356.628L153.89 377.928C149.15 380.658 141.98 380.998 137.88 378.588Z"
            fill="#B1B4C4" />
        <path d="M190.77 356.628V354.458L187.46 356.368L190.77 356.628Z" fill="#B1B4C4" />
        <path d="M78.18 341.808V339.598L81.59 341.008L78.18 341.808Z" fill="#B1B4C4" />
        <path
            d="M137.88 376.418L80.95 343.548C76.85 341.178 77.37 337.038 82.1 334.308L118.98 312.998L190.77 354.448L153.89 375.738C149.15 378.488 141.98 378.778 137.88 376.418Z"
            fill="#D6D8E5" />
        <path d="M119.18 313.108L110.29 283.628L182.86 325.258L190.77 354.458L119.18 313.108Z" fill="#9EA1AF" />
        <path d="M188.67 355.668L190.77 354.458L187.62 351.998L188.67 355.668Z" fill="#9EA1AF" />
        <path d="M116.89 314.218L108 284.738L180.57 326.368L188.67 355.668L116.89 314.218Z" fill="#B1B4C4" />
        <path
            d="M301.11 405.348L20.2 243.168C16.26 240.888 13.07 234.788 13.07 229.538V12.2484C13.07 6.99836 16.26 4.57836 20.2 6.85836L301.11 168.998C305.05 171.268 308.24 177.368 308.24 182.628V399.998C308.24 405.208 305.05 407.628 301.11 405.348Z"
            fill="#C4C7D6" />
        <path d="M302.55 407.588L305.67 405.798L304.32 396.568L302.55 407.588Z" fill="#C4C7D6" />
        <path
            d="M12.56 8.18836L15.62 6.42836L20.02 8.93836C20.02 8.93836 15.33 9.64836 15.22 9.61836C15.11 9.58836 12.56 8.18836 12.56 8.18836Z"
            fill="#B1B4C4" />
        <path
            d="M298.53 406.838L17.62 244.658C13.68 242.378 10.48 236.278 10.48 231.028V13.7384C10.48 8.47836 13.68 6.06836 17.62 8.33836L298.52 170.518C302.46 172.798 305.66 178.898 305.66 184.158V401.438C305.67 406.698 302.47 409.108 298.53 406.838Z"
            fill="#E4E7F2" />
        <path
            d="M298.04 407.118L17.13 244.938C13.19 242.658 10 236.558 10 231.308V13.9984C10 8.74836 13.19 6.32836 17.13 8.60836L298.04 170.808C301.98 173.078 305.17 179.178 305.17 184.438V401.728C305.17 406.998 301.98 409.398 298.04 407.118Z"
            fill="#201D38" />
        <path opacity="0.3"
            d="M301.31 393.908L13.56 227.778L13.71 14.8884C13.71 12.7084 15.24 11.8284 17.13 12.8884L298.04 175.098C299.036 175.746 299.864 176.62 300.458 177.649C301.053 178.678 301.396 179.832 301.46 181.018L301.31 393.908Z"
            fill="url(#paint0_linear_369_235)" />
        <path d="M188.24 148.078L169.17 137.068V130.188L188.24 141.198V148.078Z" fill="#A298E2" />
        <path d="M232.32 173.548L191.81 150.138V143.258L232.32 166.668V173.548Z" fill="#F4CE2C" />
        <path d="M188.24 170.088L169.17 159.088V152.208L188.24 163.208V170.088Z" fill="#A298E2" />
        <path d="M205.23 180.068L191.81 172.158V165.278L205.23 173.188V180.068Z" fill="#4D3BFF" />
        <path d="M188.24 181.098L169.17 170.088V163.208L188.24 174.218V181.098Z" fill="#A298E2" />
        <path d="M214.45 196.228L191.81 183.158V176.278L214.45 189.348V196.228Z" fill="#4D3BFF" />
        <path d="M188.24 192.098L169.17 181.098V174.218L188.24 185.228V192.098Z" fill="#A298E2" />
        <path d="M251.52 228.558L191.81 194.168V187.288L251.52 221.688V228.558Z" fill="#FF8657" />
        <path d="M188.24 159.088L169.17 148.078V141.198L188.24 152.208V159.088Z" fill="#A298E2" />
        <path d="M266.19 204.138L191.81 161.148V154.268L266.19 197.258V204.138Z" fill="#A298E2" />
        <path d="M188.24 203.108L169.17 192.098V185.218L188.24 196.228V203.108Z" fill="#A298E2" />
        <path d="M256.15 243.008L191.81 205.178V198.298L256.15 236.128V243.008Z" fill="#C33AFC" />
        <path d="M188.24 225.128L169.17 214.118V207.238L188.24 218.248V225.128Z" fill="#A298E2" />
        <path d="M266.88 270.528L191.81 227.188V220.308L266.88 263.648V270.528Z" fill="#A298E2" />
        <path d="M188.24 236.128L169.17 225.128V218.248L188.24 229.248V236.128Z" fill="#A298E2" />
        <path d="M214.45 251.268L191.81 238.188V231.318L214.45 244.388V251.268Z" fill="#C33AFC" />
        <path d="M188.24 247.138L169.17 236.128V229.248L188.24 240.258V247.138Z" fill="#A298E2" />
        <path d="M238.07 276.028L191.81 249.198V242.318L238.07 269.148V276.028Z" fill="#4D3BFF" />
        <path d="M188.24 214.118L169.17 203.108V196.228L188.24 207.238V214.118Z" fill="#A298E2" />
        <path d="M200.15 220.998L191.81 216.178V209.298L200.15 214.118V220.998Z" fill="#4D3BFF" />
        <path d="M188.24 258.148L169.17 247.138V240.258L188.24 251.268V258.148Z" fill="#A298E2" />
        <path d="M221.67 277.408L191.81 260.208V253.328L221.67 270.528V277.408Z" fill="#C33AFC" />
        <path d="M188.24 280.158L169.17 269.148V262.268L188.24 273.278V280.158Z" fill="#A298E2" />
        <path d="M235.38 307.058L191.81 282.218V275.338L235.38 300.178V307.058Z" fill="#FF8657" />
        <path d="M188.24 291.168L169.17 280.158V273.278L188.24 284.288V291.168Z" fill="#A298E2" />
        <path d="M197.25 296.668L191.81 293.228V286.348L197.25 289.788V296.668Z" fill="#A298E2" />
        <path d="M188.24 302.168L169.17 291.168V284.288L188.24 295.288V302.168Z" fill="#A298E2" />
        <path d="M216.8 318.628L191.81 304.238V297.358L216.8 311.748V318.628Z" fill="#F4CE2C" />
        <path d="M188.24 269.148L169.17 258.148V251.258L188.24 262.268V269.148Z" fill="#A298E2" />
        <path d="M226.58 291.168L191.81 271.208V264.338L226.58 284.288V291.168Z" fill="#4D3BFF" />
        <path d="M64.9 79.2884L45.83 68.2784V61.3984L64.9 72.4084V79.2884Z" fill="#A298E2" />
        <path d="M149.5 128.128L68.47 81.3484V74.4684L149.5 121.248V128.128Z" fill="#C33AFC" />
        <path d="M64.9 101.298L45.83 90.2884V83.4084L64.9 94.4184V101.298Z" fill="#A298E2" />
        <path d="M122.09 134.318L68.47 103.358V96.4784L122.09 127.438V134.318Z" fill="#F4CE2C" />
        <path d="M64.9 112.308L45.83 101.298V94.4184L64.9 105.428V112.308Z" fill="#A298E2" />
        <path d="M135.2 152.888L68.47 114.368V107.488L135.2 146.008V152.888Z" fill="#FF8657" />
        <path d="M64.9 123.308L45.83 112.308V105.428L64.9 116.428V123.308Z" fill="#A298E2" />
        <path d="M114.94 152.208L68.47 125.378V118.498L114.94 145.328V152.208Z" fill="#A298E2" />
        <path d="M64.9 90.2884L45.83 79.2784V72.4084L64.9 83.4084V90.2884Z" fill="#A298E2" />
        <path d="M108.98 115.748L68.47 92.3584V85.4784L108.98 108.868V115.748Z" fill="#4D3BFF" />
        <path d="M64.9 134.318L45.83 123.308V116.428L64.9 127.438V134.318Z" fill="#A298E2" />
        <path d="M92.3 150.138L68.47 136.378V129.498L92.3 143.258V150.138Z" fill="#C33AFC" />
        <path d="M64.9 156.328L45.83 145.318V138.448L64.9 149.448V156.328Z" fill="#A298E2" />
        <path d="M143.54 201.738L68.47 158.398V151.518L143.54 194.858V201.738Z" fill="#F4CE2C" />
        <path d="M64.9 167.338L45.83 156.328V149.448L64.9 160.458V167.338Z" fill="#A298E2" />
        <path d="M91.11 182.468L68.47 169.398V162.518L91.11 175.588V182.468Z" fill="#FF8657" />
        <path d="M64.9 178.348L45.83 167.338V160.458L64.9 171.468V178.348Z" fill="#A298E2" />
        <path d="M135.2 218.928L68.47 180.408V173.528L135.2 212.058V218.928Z" fill="#A298E2" />
        <path d="M64.9 145.328L45.83 134.318V127.438L64.9 138.448V145.328Z" fill="#A298E2" />
        <path d="M131.62 183.848L68.47 147.388V140.508L131.62 176.968V183.848Z" fill="#4D3BFF" />
        <path d="M64.9 189.348L45.83 178.338V171.468L64.9 182.468V189.348Z" fill="#A298E2" />
        <path d="M76.81 196.228L68.47 191.418V184.538L76.81 189.348V196.228Z" fill="#C33AFC" />
        <path d="M64.9 211.368L45.83 200.358V193.478L64.9 204.488V211.368Z" fill="#A298E2" />
        <path d="M83.96 222.368L68.47 213.428V206.548L83.96 215.488V222.368Z" fill="#F4CE2C" />
        <path d="M64.9 222.368L45.83 211.368V204.488L64.9 215.488V222.368Z" fill="#A298E2" />
        <path d="M108.98 247.828L68.47 224.438V217.558L108.98 240.948V247.828Z" fill="#FF8657" />
        <path d="M64.9 233.378L45.83 222.368V215.488L64.9 226.498V233.378Z" fill="#A298E2" />
        <path d="M132.81 272.588L68.47 235.438V228.558L132.81 265.708V272.588Z" fill="#A298E2" />
        <path d="M64.9 200.358L45.83 189.348V182.468L64.9 193.478V200.358Z" fill="#A298E2" />
        <path d="M149.5 249.198L68.47 202.418V195.538L149.5 242.318V249.198Z" fill="#4D3BFF" />
    </g>
    <defs>
        <filter id="filter0_bd_369_235" x="0" y="0" width="318.24" height="421.98" filterUnits="userSpaceOnUse"
            color-interpolation-filters="sRGB">
            <feFlood flood-opacity="0" result="BackgroundImageFix" />
            <feGaussianBlur in="BackgroundImage" stdDeviation="2" />
            <feComposite in2="SourceAlpha" operator="in" result="effect1_backgroundBlur_369_235" />
            <feColorMatrix in="SourceAlpha" type="matrix" values="0 0 0 0 0 0 0 0 0 0 0 0 0 0 0 0 0 0 127 0"
                result="hardAlpha" />
            <feOffset dy="4" />
            <feGaussianBlur stdDeviation="5" />
            <feComposite in2="hardAlpha" operator="out" />
            <feColorMatrix type="matrix" values="0 0 0 0 0 0 0 0 0 0 0 0 0 0 0 0 0 0 0.25 0" />
            <feBlend mode="normal" in2="effect1_backgroundBlur_369_235" result="effect2_dropShadow_369_235" />
            <feBlend mode="normal" in="SourceGraphic" in2="effect2_dropShadow_369_235" result="shape" />
        </filter>
        <linearGradient id="paint0_linear_369_235" x1="13.56" y1="203.178" x2="301.46" y2="203.178"
            gradientUnits="userSpaceOnUse">
            <stop offset="0.21" stop-color="white" stop-opacity="0" />
            <stop offset="1" stop-color="white" stop-opacity="0.2" />
        </linearGradient>
    </defs>
</svg>